<?xml version="1.0" encoding="UTF-8"?>
<!-- Generator: https://ezgif.com/png-to-svg -->
<svg version="1.1" xmlns="http://www.w3.org/2000/svg" width="292" height="281">
<path d="M0 0 C0.87 -0 1.73 -0.01 2.62 -0.01 C5.49 -0.02 8.36 -0.02 11.24 -0.01 C13.31 -0.02 15.38 -0.02 17.45 -0.03 C23.05 -0.04 28.65 -0.04 34.26 -0.04 C38.94 -0.04 43.63 -0.04 48.32 -0.05 C59.38 -0.06 70.44 -0.06 81.5 -0.05 C92.89 -0.05 104.28 -0.06 115.68 -0.08 C125.47 -0.1 135.27 -0.11 145.07 -0.1 C150.92 -0.1 156.76 -0.1 162.61 -0.12 C168.1 -0.13 173.6 -0.13 179.1 -0.12 C181.11 -0.11 183.12 -0.12 185.13 -0.12 C201.02 -0.18 213.34 1.27 226.83 10.26 C226.83 10.92 226.83 11.58 226.83 12.26 C227.7 12.6 227.7 12.6 228.58 12.95 C231.45 14.62 232.87 16.53 234.83 19.2 C235.49 20.07 236.15 20.95 236.83 21.85 C243.46 33.15 243.4 43.68 243.35 56.41 C243.35 58.44 243.36 60.48 243.37 62.51 C243.39 68 243.38 73.49 243.37 78.98 C243.36 84.74 243.37 90.51 243.37 96.27 C243.38 105.95 243.37 115.62 243.35 125.3 C243.33 136.46 243.34 147.63 243.36 158.8 C243.38 168.4 243.38 178.01 243.37 187.62 C243.36 193.35 243.36 199.08 243.38 204.81 C243.39 210.2 243.38 215.58 243.36 220.97 C243.35 222.94 243.35 224.91 243.36 226.88 C243.42 240.41 242.82 252.25 233.95 263.2 C233.55 263.72 233.14 264.25 232.72 264.79 C225.2 274.16 215.57 279.2 203.83 281.26 C196.92 281.83 189.97 281.68 183.05 281.66 C180.95 281.67 178.85 281.68 176.75 281.69 C171.08 281.7 165.4 281.7 159.73 281.7 C154.98 281.69 150.23 281.7 145.48 281.71 C134.27 281.72 123.06 281.72 111.86 281.71 C100.32 281.7 88.78 281.71 77.24 281.74 C67.31 281.76 57.38 281.76 47.45 281.76 C41.53 281.76 35.61 281.76 29.69 281.78 C24.12 281.79 18.55 281.79 12.98 281.77 C10.94 281.76 8.9 281.77 6.87 281.78 C-8.86 281.85 -21.58 280.74 -34.17 270.26 C-34.83 269.71 -35.49 269.17 -36.17 268.6 C-40.97 264.22 -43.68 259.21 -46.17 253.26 C-46.68 252.07 -47.19 250.87 -47.72 249.64 C-49.37 245.19 -49.6 241.21 -49.56 236.5 C-49.57 235.65 -49.58 234.8 -49.58 233.93 C-49.6 231.11 -49.59 228.3 -49.59 225.48 C-49.6 223.45 -49.61 221.43 -49.62 219.4 C-49.64 213.9 -49.64 208.41 -49.64 202.91 C-49.64 198.31 -49.65 193.72 -49.66 189.12 C-49.67 178.27 -49.68 167.41 -49.67 156.56 C-49.66 145.39 -49.69 134.22 -49.72 123.04 C-49.76 113.43 -49.77 103.82 -49.76 94.21 C-49.76 88.48 -49.77 82.75 -49.79 77.02 C-49.81 71.62 -49.81 66.23 -49.79 60.83 C-49.79 58.86 -49.79 56.89 -49.81 54.92 C-49.91 39.48 -48.43 25.97 -37.17 14.26 C-32.01 9.26 -32.01 9.26 -29.17 9.26 C-29.17 8.6 -29.17 7.94 -29.17 7.26 C-27.72 6.45 -26.26 5.67 -24.8 4.89 C-23.98 4.44 -23.17 4 -22.33 3.55 C-15.15 0.62 -7.69 -0.04 0 0 Z " fill="#4D8DC1" transform="translate(49.170135498046875,-0.2606964111328125)"/>
<path d="M0 0 C1.32 0 2.64 0.01 3.99 0.01 C4.68 0.02 5.37 0.04 6.08 0.05 C8.12 0.09 10.17 0.09 12.21 0.09 C36.54 0.22 58.07 6.64 77.09 22.09 C79.18 23.62 79.18 23.62 81.24 23.46 C84.41 21.96 87.19 19.92 90.04 17.9 C108.83 5.02 127.32 0.3 150 0.17 C151.41 0.15 152.82 0.13 154.23 0.1 C156.29 0.06 158.34 0.05 160.4 0.04 C162.23 0.01 162.23 0.01 164.08 -0.01 C168 0.55 169.65 1.6 172.36 4.46 C172.73 7.43 172.84 9.78 172.67 12.71 C172.63 13.83 172.63 13.83 172.6 14.97 C172.54 16.8 172.45 18.63 172.36 20.46 C173.46 20.41 174.57 20.37 175.71 20.32 C177.18 20.28 178.64 20.25 180.11 20.21 C180.84 20.18 181.56 20.14 182.32 20.11 C185.69 20.05 187.82 20.06 190.57 22.12 C192.81 25.06 192.86 26.63 192.86 30.31 C192.87 31.5 192.89 32.69 192.9 33.93 C192.89 35.23 192.88 36.54 192.87 37.89 C192.88 39.28 192.89 40.67 192.89 42.07 C192.91 45.85 192.91 49.63 192.89 53.41 C192.88 57.37 192.89 61.32 192.9 65.28 C192.91 71.92 192.9 78.57 192.88 85.21 C192.86 92.89 192.86 100.58 192.88 108.26 C192.9 114.85 192.9 121.45 192.89 128.04 C192.89 131.98 192.89 135.92 192.9 139.86 C192.91 143.57 192.9 147.27 192.88 150.97 C192.87 152.98 192.89 154.99 192.9 157 C192.89 158.19 192.88 159.39 192.86 160.62 C192.86 161.65 192.86 162.69 192.86 163.76 C192.22 167.2 191.12 168.38 188.36 170.46 C185.33 170.84 182.67 170.98 179.64 170.94 C178.76 170.95 177.89 170.95 176.98 170.96 C175.07 170.96 173.17 170.96 171.26 170.95 C168.24 170.93 165.23 170.94 162.21 170.95 C154.71 170.98 147.22 170.97 139.72 170.96 C133.38 170.95 127.05 170.96 120.72 170.99 C117.75 170.99 114.78 170.98 111.81 170.96 C109.98 170.96 108.15 170.97 106.33 170.98 C105.5 170.97 104.68 170.96 103.83 170.94 C98.54 171 95.57 171.98 91.36 175.46 C89.3 177.81 87.59 180.06 86.04 182.77 C84.36 184.46 84.36 184.46 81.11 185.27 C76.09 184.19 74.82 181.85 72.03 177.72 C69.55 174.37 67.3 172.77 63.36 171.46 C60.5 171.36 57.67 171.32 54.82 171.32 C53.94 171.32 53.07 171.31 52.17 171.31 C50.28 171.3 48.39 171.3 46.49 171.29 C43.5 171.29 40.5 171.27 37.5 171.25 C28.98 171.2 20.46 171.15 11.94 171.14 C6.73 171.12 1.52 171.1 -3.69 171.05 C-5.67 171.04 -7.66 171.04 -9.65 171.04 C-12.42 171.04 -15.2 171.02 -17.98 170.99 C-18.8 171 -19.62 171 -20.47 171.01 C-23.86 170.96 -26.1 170.87 -28.86 168.79 C-31.11 165.86 -31.15 164.29 -31.15 160.62 C-31.17 158.82 -31.17 158.82 -31.19 157 C-31.18 155.69 -31.17 154.38 -31.16 153.04 C-31.17 151.64 -31.17 150.25 -31.18 148.86 C-31.2 145.07 -31.19 141.29 -31.18 137.51 C-31.17 133.56 -31.18 129.6 -31.19 125.64 C-31.19 119 -31.19 112.35 -31.17 105.71 C-31.14 98.03 -31.15 90.35 -31.17 82.66 C-31.19 76.07 -31.19 69.47 -31.18 62.88 C-31.18 58.94 -31.18 55 -31.19 51.06 C-31.2 47.36 -31.19 43.65 -31.17 39.95 C-31.16 37.94 -31.17 35.93 -31.19 33.93 C-31.18 32.73 -31.16 31.54 -31.15 30.31 C-31.15 29.27 -31.15 28.23 -31.15 27.16 C-30.51 23.73 -29.41 22.54 -26.64 20.46 C-23.75 20.17 -21.27 20.08 -18.39 20.21 C-17.28 20.24 -17.28 20.24 -16.14 20.27 C-14.31 20.31 -12.47 20.38 -10.64 20.46 C-10.69 19.35 -10.74 18.24 -10.79 17.1 C-10.82 15.64 -10.86 14.17 -10.89 12.71 C-10.93 11.98 -10.96 11.25 -11 10.5 C-11.06 7.16 -11.03 4.99 -9.04 2.25 C-5.87 -0.12 -3.93 -0.03 0 0 Z " fill="#0D2944" transform="translate(65.64453125,50.5390625)"/>
<path d="M0 0 C26.75 0 44.43 2.14 66 17 C66.56 17.28 67.12 17.56 67.7 17.84 C70.74 19.55 72.67 20.83 73.64 24.28 C73.86 27.22 73.87 30.08 73.79 33.03 C73.8 34.15 73.8 35.26 73.8 36.4 C73.79 40.08 73.74 43.75 73.68 47.43 C73.67 49.97 73.66 52.52 73.65 55.07 C73.63 61.09 73.57 67.11 73.5 73.13 C73.43 79.99 73.39 86.85 73.35 93.7 C73.28 107.8 73.16 121.9 73 136 C69.07 134.46 65.42 132.66 61.69 130.69 C42.05 120.64 22.24 119.86 0 119 C0 79.73 0 40.46 0 0 Z " fill="#FCFDFD" transform="translate(67,64)"/>
<path d="M0 0 C0 39.27 0 78.54 0 119 C-8.58 119.33 -17.16 119.66 -26 120 C-40.85 122.7 -52.7 126.07 -66.04 133.08 C-68 134 -68 134 -70 134 C-70 134.66 -70 135.32 -70 136 C-70.66 136 -71.32 136 -72 136 C-72.37 121.33 -72.66 106.66 -72.83 91.98 C-72.91 85.16 -73.02 78.35 -73.21 71.54 C-73.38 64.95 -73.48 58.38 -73.52 51.79 C-73.55 49.29 -73.61 46.78 -73.69 44.28 C-74.32 25.22 -74.32 25.22 -70.48 19.9 C-66.83 16.39 -62.72 14.06 -58.12 11.98 C-55.25 10.66 -52.54 9.09 -49.8 7.52 C-33.81 -1.27 -18.54 0 0 0 Z " fill="#FDFDFE" transform="translate(225,64)"/>
<path d="M0 0 C2.31 0 4.62 0 7 0 C7 41.25 7 82.5 7 125 C-47 125 -47 125 -73 124 C-69.31 121.23 -66.36 119.72 -62.12 118 C-60.93 117.5 -59.74 117.01 -58.51 116.5 C-45.56 111.9 -33.04 111.55 -19.49 111.56 C-17.18 111.56 -14.87 111.53 -12.55 111.5 C-11.85 111.51 -11.15 111.52 -10.43 111.53 C-7.43 111.48 -5.37 111.23 -2.82 109.61 C0.02 105.54 -0.43 101.58 -0.45 96.72 C-0.44 95.16 -0.44 95.16 -0.42 93.56 C-0.39 90.11 -0.39 86.66 -0.39 83.2 C-0.38 80.81 -0.36 78.42 -0.34 76.02 C-0.3 69.72 -0.28 63.42 -0.26 57.12 C-0.24 50.7 -0.2 44.27 -0.16 37.84 C-0.08 25.23 -0.03 12.61 0 0 Z " fill="#DC4E6B" transform="translate(239,84)"/>
<path d="M0 0 C2.31 0 4.62 0 7 0 C7 0.82 7 0.82 7 1.66 C7.04 14.99 7.1 28.32 7.18 41.65 C7.22 48.09 7.26 54.54 7.27 60.98 C7.29 67.2 7.32 73.42 7.37 79.64 C7.38 82.01 7.39 84.39 7.39 86.76 C7.39 90.08 7.42 93.4 7.45 96.72 C7.45 97.71 7.44 98.7 7.44 99.71 C7.47 105 7.47 105 9.82 109.61 C12.94 111.6 15.81 111.51 19.38 111.43 C20.86 111.44 22.35 111.45 23.83 111.45 C24.99 111.45 24.99 111.45 26.18 111.44 C45.9 111.4 62.12 114.51 80 123 C80 123.33 80 123.66 80 124 C53.31 125.25 26.75 125 0 125 C0 83.75 0 42.5 0 0 Z " fill="#DC4B6D" transform="translate(47,84)"/>
<path d="M0 0 C0.33 0 0.66 0 1 0 C1 0.82 1.01 1.65 1.01 2.49 C1.12 22.49 1.22 42.48 1.34 62.48 C1.39 72.15 1.45 81.82 1.5 91.49 C1.54 99.92 1.59 108.34 1.64 116.77 C1.66 121.23 1.69 125.69 1.71 130.16 C1.73 134.35 1.75 138.55 1.78 142.75 C1.79 144.29 1.8 145.84 1.8 147.38 C1.81 149.48 1.83 151.58 1.84 153.69 C1.85 155.45 1.85 155.45 1.86 157.26 C1.81 159.96 1.81 159.96 3 162 C2.34 162.99 1.68 163.98 1 165 C-0.13 161.61 -0.12 159.06 -0.12 155.49 C-0.12 154.82 -0.12 154.16 -0.12 153.48 C-0.12 151.25 -0.12 149.02 -0.11 146.79 C-0.11 145.19 -0.11 143.6 -0.11 142 C-0.11 137.66 -0.11 133.32 -0.1 128.98 C-0.1 124.45 -0.09 119.92 -0.09 115.39 C-0.09 106.8 -0.08 98.22 -0.07 89.63 C-0.06 79.86 -0.06 70.09 -0.05 60.31 C-0.04 40.21 -0.02 20.1 0 0 Z " fill="#337FB3" transform="translate(0,83)"/>
<path d="M0 0 C3.14 1.54 6.09 3.06 9 5 C9 5.66 9 6.32 9 7 C8.01 7 7.02 7 6 7 C6 6.34 6 5.68 6 5 C5.38 4.92 4.76 4.84 4.12 4.75 C2 4 2 4 0.75 1.94 C0.5 1.3 0.25 0.66 0 0 Z " fill="#4078B3" transform="translate(267,5)"/>
</svg>
